<svg width="99" height="56" xmlns="http://www.w3.org/2000/svg"><defs><linearGradient x1=".003%" y1="50%" x2="100.013%" y2="50%" id="a"><stop stop-color="#F0735B" offset="0%"/><stop stop-color="#ED0057" offset="100%"/></linearGradient><linearGradient x1="-.082%" y1="50.029%" x2="100.025%" y2="50.029%" id="b"><stop stop-color="#F0735B" offset="0%"/><stop stop-color="#ED0057" offset="100%"/></linearGradient><linearGradient x1="100.038%" y1="50.029%" x2="-.049%" y2="50.029%" id="c"><stop stop-color="#F0735B" offset="0%"/><stop stop-color="#ED0057" offset="100%"/></linearGradient><linearGradient x1="34.258%" y1="41.519%" x2="70.094%" y2="60.343%" id="d"><stop stop-color="#F0735B" offset="0%"/><stop stop-color="#ED0057" offset="100%"/></linearGradient><linearGradient x1=".001%" y1="49.958%" x2="99.999%" y2="49.958%" id="e"><stop stop-color="#F0735B" offset="0%"/><stop stop-color="#ED0057" offset="100%"/></linearGradient></defs><g fill="none"><path d="M64.447 46.046c0-3.52 2.613-6.308 6.1-6.308 3.485 0 6.072 2.788 6.072 6.308s-2.584 6.295-6.073 6.295c-3.489 0-6.099-2.775-6.099-6.295zm-3.783 0c.004 5.498 4.417 9.953 9.86 9.954 5.444.001 9.859-4.452 9.865-9.95.006-5.497-4.4-9.96-9.843-9.97a9.817 9.817 0 0 0-6.988 2.913 10.014 10.014 0 0 0-2.894 7.053zm-44.046 9.096L8.634 44.585l6.638-7.628c.212-.258.186-.61-.19-.61h-3.338a.83.83 0 0 0-.794.379L3.763 44.95v-8.054a.578.578 0 0 0-.54-.544H.504a.484.484 0 0 0-.373.157.495.495 0 0 0-.127.387V55.21c0 .354.16.532.5.532H3.27c.326 0 .5-.178.5-.532v-5.18l2.342-2.543 5.831 7.776c.216.287.376.479.686.479h3.773c.363 0 .47-.287.216-.6zm14.047-7.588-5.393 2.804 3.208-8.99 2.185 6.186zm6.834 7.628-7.285-18.334a.677.677 0 0 0-.653-.502H27.4a.674.674 0 0 0-.653.502l-7.304 18.33c-.147.367 0 .555.35.555h3.75c.411-.258 8.245-4.517 8.245-4.517l1.885 4.042a.654.654 0 0 0 .634.475h2.825c.327 0 .513-.188.363-.554l.003.003zm15.24-12.52a3.076 3.076 0 0 1-.93 2.192 3.015 3.015 0 0 1-2.206.852h-4.025v-6.103h4.025c.82-.021 1.613.29 2.202.865.59.575.926 1.365.934 2.193zm4.12 12.536-3.529-7.057c1.94-1.128 3.267-3.223 3.267-5.397 0-3.3-2.532-6.365-6.086-6.365h-8.206a.458.458 0 0 0-.353.136.468.468 0 0 0-.134.356v18.34a.455.455 0 0 0 .12.384.445.445 0 0 0 .376.134h2.76c.142.02.283-.03.384-.13a.465.465 0 0 0 .13-.388V49.04h3.92l3.07 6.238c.174.37.327.466.605.466h3.336a.369.369 0 0 0 .323-.183.376.376 0 0 0 .003-.375l.013.013zm41.076-15.39a.663.663 0 0 0 0-1.007C96.429 37.237 94.195 36 91.944 36c-4.159 0-6.988 2.2-6.988 5.41 0 2.97 2.238 4.636 6.423 5.9 1.375.37 3.622.927 3.622 2.6 0 1.303-1.212 2.54-3.266 2.54-1.96 0-3.408-1.194-4.486-2.243-.31-.271-.578-.42-.888-.136l-1.738 1.713c-.376.37-.147.68.124.99a9.778 9.778 0 0 0 7.066 3.21c3.744 0 7.187-2.353 7.187-5.956 0-3.602-2.92-5.031-6.396-6.077-2.209-.613-3.77-1.049-3.77-2.49 0-1.796 1.656-2.149 2.989-2.149 1.51 0 2.868 1.102 3.691 1.795.327.274.654.475.98.165l1.441-1.465z" fill="url(#a)"/><path d="M8.791 8.522a.146.146 0 0 0 .03.227l2.616 1.687a.2.2 0 0 0 .262-.037l1.805-2.058a.196.196 0 0 0 0-.264l-2.087-2.266a.155.155 0 0 0-.237 0L8.791 8.52z" fill="url(#b)" opacity=".6" transform="translate(27)"/><path d="M36.255 8.522a.146.146 0 0 1-.032.227l-2.616 1.687a.202.202 0 0 1-.263-.037l-1.802-2.058a.2.2 0 0 1 0-.264l2.09-2.266a.155.155 0 0 1 .238 0l2.385 2.71z" fill="url(#c)" opacity=".6" transform="translate(27)"/><path d="M44.874 4.941c-.182-.234-.5-.25-.906.03l-10.024 6.888a.825.825 0 0 1-.412.122.604.604 0 0 1-.474-.244L23.356.412A1.166 1.166 0 0 0 22.53 0c-.307.01-.594.159-.782.405L12.12 11.687a.804.804 0 0 1-.529.257.685.685 0 0 1-.373-.125L1.029 4.958a1.135 1.135 0 0 0-.535-.188.471.471 0 0 0-.383.184.844.844 0 0 0-.055.722l4.165 14.876c.174.64.747 1.086 1.402 1.09h33.891a1.42 1.42 0 0 0 1.373-1.107l4.08-14.882a.93.93 0 0 0-.093-.712z" fill="url(#d)" transform="translate(27)"/><path d="M39.41 24.175H5.608a.892.892 0 0 0-.662.267.92.92 0 0 0-.263.672v1.944a.923.923 0 0 0 .262.673.895.895 0 0 0 .663.269H39.41a.895.895 0 0 0 .662-.27.923.923 0 0 0 .263-.672v-1.944a.92.92 0 0 0-.263-.672.892.892 0 0 0-.662-.267z" fill="url(#e)" transform="translate(27)"/></g></svg>